<svg width="383" height="298" viewBox="0 0 383 298" fill="none" xmlns="http://www.w3.org/2000/svg">
<g filter="url(#filter0_d_1551_3222)">
<rect x="5" y="4" width="362" height="278.322" rx="9.09548" fill="#383838"/>
<rect x="5.22739" y="4.22739" width="361.545" height="277.867" rx="8.86809" stroke="#00EFD8" stroke-width="0.454774"/>
</g>
<path d="M129.653 37.5586L132.582 31.1918H133.046L135.974 37.5586H135.474L132.709 31.4828H132.909L130.153 37.5586H129.653ZM130.726 35.7668L130.881 35.3757H134.692L134.846 35.7668H130.726ZM136.421 37.5586V37.2493L139.668 33.0472L139.786 33.2019H136.466V32.8108H140.141V33.12L136.885 37.3221L136.748 37.1675H140.195V37.5586H136.421ZM143.487 37.595C143.081 37.595 142.729 37.5222 142.432 37.3767C142.135 37.2251 141.905 37.0007 141.741 36.7036C141.583 36.4004 141.504 36.0275 141.504 35.5849V32.8108H141.959V35.5485C141.959 36.0821 142.096 36.4884 142.368 36.7673C142.641 37.0462 143.026 37.1857 143.524 37.1857C143.881 37.1857 144.191 37.1099 144.451 36.9583C144.712 36.8067 144.912 36.5945 145.052 36.3216C145.191 36.0427 145.261 35.7152 145.261 35.3393V32.8108H145.716V37.5586H145.279V36.2397L145.343 36.3944C145.203 36.7643 144.97 37.0583 144.642 37.2766C144.321 37.4889 143.936 37.595 143.487 37.595ZM147.643 37.5586V30.8097H148.098V37.5586H147.643Z" fill="#E9E9E9"/>
<path d="M199.188 37.1981L194.641 32.6504H203.736L199.188 37.1981Z" fill="#00EFD8"/>
<rect x="121.649" y="25.1473" width="85.9523" height="17.7362" rx="4.32035" stroke="#00EFD8" stroke-width="0.454774"/>
<path d="M31.4771 37.6486C30.9799 37.6486 30.5039 37.5788 30.0491 37.4394C29.5944 37.2938 29.2336 37.1089 28.9668 36.8846L29.3761 35.9659C29.6307 36.166 29.9461 36.3328 30.322 36.4662C30.698 36.5996 31.083 36.6663 31.4771 36.6663C31.8106 36.6663 32.0805 36.6299 32.2866 36.5571C32.4928 36.4844 32.6444 36.3873 32.7414 36.2661C32.8384 36.1387 32.8869 35.9962 32.8869 35.8386C32.8869 35.6445 32.8172 35.4899 32.6777 35.3747C32.5383 35.2534 32.3564 35.1594 32.132 35.0927C31.9137 35.02 31.6681 34.9533 31.3953 34.8926C31.1285 34.832 30.8586 34.7623 30.5858 34.6834C30.319 34.5986 30.0734 34.4924 29.849 34.3651C29.6307 34.2317 29.4519 34.0559 29.3124 33.8376C29.1729 33.6193 29.1032 33.3403 29.1032 33.0008C29.1032 32.6552 29.1942 32.3398 29.3761 32.0549C29.564 31.7638 29.846 31.5334 30.222 31.3636C30.604 31.1878 31.086 31.0998 31.6681 31.0998C32.0501 31.0998 32.4291 31.1483 32.8051 31.2454C33.181 31.3424 33.5085 31.4818 33.7874 31.6637L33.4145 32.5824C33.1295 32.4126 32.8354 32.2883 32.5322 32.2095C32.229 32.1246 31.938 32.0821 31.659 32.0821C31.3316 32.0821 31.0648 32.1216 30.8586 32.2004C30.6585 32.2792 30.51 32.3823 30.413 32.5096C30.322 32.637 30.2765 32.7825 30.2765 32.9462C30.2765 33.1402 30.3432 33.2979 30.4766 33.4192C30.6161 33.5344 30.795 33.6253 31.0133 33.692C31.2376 33.7587 31.4862 33.8254 31.7591 33.8921C32.032 33.9528 32.3018 34.0225 32.5686 34.1013C32.8415 34.1802 33.087 34.2832 33.3053 34.4106C33.5297 34.5379 33.7086 34.7107 33.842 34.929C33.9814 35.1473 34.0512 35.4232 34.0512 35.7567C34.0512 36.0963 33.9572 36.4116 33.7692 36.7026C33.5873 36.9876 33.3053 37.2181 32.9233 37.3939C32.5413 37.5637 32.0592 37.6486 31.4771 37.6486ZM37.3974 37.6213C36.8578 37.6213 36.3848 37.5152 35.9785 37.3029C35.5783 37.0847 35.2661 36.7875 35.0417 36.4116C34.8234 36.0356 34.7143 35.6082 34.7143 35.1291C34.7143 34.644 34.8204 34.2165 35.0326 33.8467C35.2509 33.4707 35.548 33.1766 35.924 32.9644C36.306 32.7522 36.7395 32.6461 37.2246 32.6461C37.6976 32.6461 38.119 32.7491 38.4889 32.9553C38.8588 33.1615 39.1498 33.4525 39.3621 33.8285C39.5743 34.2044 39.6804 34.6471 39.6804 35.1564C39.6804 35.2049 39.6774 35.2595 39.6713 35.3201C39.6713 35.3808 39.6683 35.4384 39.6622 35.4929H35.6147V34.738H39.0619L38.6162 34.9745C38.6223 34.6956 38.5647 34.45 38.4434 34.2378C38.3221 34.0255 38.1554 33.8588 37.9432 33.7375C37.737 33.6162 37.4975 33.5556 37.2246 33.5556C36.9457 33.5556 36.7001 33.6162 36.4879 33.7375C36.2817 33.8588 36.118 34.0286 35.9967 34.2469C35.8815 34.4591 35.8239 34.7107 35.8239 35.0018V35.1837C35.8239 35.4748 35.8906 35.7325 36.024 35.9568C36.1574 36.1812 36.3454 36.354 36.5879 36.4753C36.8305 36.5965 37.1094 36.6572 37.4247 36.6572C37.6976 36.6572 37.9432 36.6147 38.1615 36.5298C38.3797 36.4449 38.5738 36.3115 38.7436 36.1296L39.353 36.83C39.1347 37.0847 38.8588 37.2817 38.5253 37.4212C38.1978 37.5546 37.8219 37.6213 37.3974 37.6213ZM40.7725 37.5576V30.8088H41.9094V37.5576H40.7725ZM45.6846 37.6213C45.145 37.6213 44.672 37.5152 44.2657 37.3029C43.8655 37.0847 43.5532 36.7875 43.3289 36.4116C43.1106 36.0356 43.0015 35.6082 43.0015 35.1291C43.0015 34.644 43.1076 34.2165 43.3198 33.8467C43.5381 33.4707 43.8352 33.1766 44.2112 32.9644C44.5932 32.7522 45.0267 32.6461 45.5118 32.6461C45.9848 32.6461 46.4062 32.7491 46.7761 32.9553C47.146 33.1615 47.437 33.4525 47.6492 33.8285C47.8615 34.2044 47.9676 34.6471 47.9676 35.1564C47.9676 35.2049 47.9646 35.2595 47.9585 35.3201C47.9585 35.3808 47.9555 35.4384 47.9494 35.4929H43.9019V34.738H47.3491L46.9034 34.9745C46.9095 34.6956 46.8519 34.45 46.7306 34.2378C46.6093 34.0255 46.4426 33.8588 46.2304 33.7375C46.0242 33.6162 45.7847 33.5556 45.5118 33.5556C45.2329 33.5556 44.9873 33.6162 44.7751 33.7375C44.5689 33.8588 44.4052 34.0286 44.2839 34.2469C44.1687 34.4591 44.1111 34.7107 44.1111 35.0018V35.1837C44.1111 35.4748 44.1778 35.7325 44.3112 35.9568C44.4446 36.1812 44.6326 36.354 44.8751 36.4753C45.1177 36.5965 45.3966 36.6572 45.7119 36.6572C45.9848 36.6572 46.2304 36.6147 46.4486 36.5298C46.6669 36.4449 46.861 36.3115 47.0308 36.1296L47.6402 36.83C47.4219 37.0847 47.146 37.2817 46.8125 37.4212C46.485 37.5546 46.1091 37.6213 45.6846 37.6213ZM51.2881 37.6213C50.7787 37.6213 50.324 37.5152 49.9238 37.3029C49.5296 37.0847 49.2204 36.7875 48.996 36.4116C48.7717 36.0356 48.6595 35.6082 48.6595 35.1291C48.6595 34.644 48.7717 34.2165 48.996 33.8467C49.2204 33.4707 49.5296 33.1766 49.9238 32.9644C50.324 32.7522 50.7787 32.6461 51.2881 32.6461C51.761 32.6461 52.1764 32.7431 52.5342 32.9371C52.898 33.1251 53.1739 33.404 53.3618 33.7739L52.4887 34.2832C52.3432 34.0528 52.1643 33.883 51.952 33.7739C51.7459 33.6648 51.5215 33.6102 51.279 33.6102C51.0001 33.6102 50.7484 33.6708 50.5241 33.7921C50.2997 33.9134 50.1239 34.0892 49.9965 34.3196C49.8692 34.544 49.8055 34.8138 49.8055 35.1291C49.8055 35.4444 49.8692 35.7173 49.9965 35.9477C50.1239 36.1721 50.2997 36.3449 50.5241 36.4662C50.7484 36.5874 51.0001 36.6481 51.279 36.6481C51.5215 36.6481 51.7459 36.5935 51.952 36.4844C52.1643 36.3752 52.3432 36.2054 52.4887 35.975L53.3618 36.4844C53.1739 36.8482 52.898 37.1301 52.5342 37.3302C52.1764 37.5243 51.761 37.6213 51.2881 37.6213ZM56.502 37.6213C55.9926 37.6213 55.5379 37.5152 55.1377 37.3029C54.7435 37.0847 54.4343 36.7875 54.2099 36.4116C53.9856 36.0356 53.8734 35.6082 53.8734 35.1291C53.8734 34.644 53.9856 34.2165 54.2099 33.8467C54.4343 33.4707 54.7435 33.1766 55.1377 32.9644C55.5379 32.7522 55.9926 32.6461 56.502 32.6461C56.975 32.6461 57.3903 32.7431 57.7481 32.9371C58.1119 33.1251 58.3878 33.404 58.5758 33.7739L57.7026 34.2832C57.5571 34.0528 57.3782 33.883 57.166 33.7739C56.9598 33.6648 56.7354 33.6102 56.4929 33.6102C56.214 33.6102 55.9623 33.6708 55.738 33.7921C55.5136 33.9134 55.3378 34.0892 55.2104 34.3196C55.0831 34.544 55.0194 34.8138 55.0194 35.1291C55.0194 35.4444 55.0831 35.7173 55.2104 35.9477C55.3378 36.1721 55.5136 36.3449 55.738 36.4662C55.9623 36.5874 56.214 36.6481 56.4929 36.6481C56.7354 36.6481 56.9598 36.5935 57.166 36.4844C57.3782 36.3752 57.5571 36.2054 57.7026 35.975L58.5758 36.4844C58.3878 36.8482 58.1119 37.1301 57.7481 37.3302C57.3903 37.5243 56.975 37.6213 56.502 37.6213ZM59.5142 37.5576V32.7006H60.6511V37.5576H59.5142ZM60.0872 31.9002C59.8749 31.9002 59.6991 31.8335 59.5596 31.7001C59.4262 31.5667 59.3595 31.406 59.3595 31.2181C59.3595 31.024 59.4262 30.8633 59.5596 30.736C59.6991 30.6026 59.8749 30.5359 60.0872 30.5359C60.2994 30.5359 60.4722 30.5996 60.6056 30.7269C60.7451 30.8482 60.8148 31.0028 60.8148 31.1908C60.8148 31.3909 60.7481 31.5607 60.6147 31.7001C60.4813 31.8335 60.3055 31.9002 60.0872 31.9002ZM64.3262 37.6213C63.829 37.6213 63.3864 37.5152 62.9983 37.3029C62.6102 37.0847 62.304 36.7875 62.0796 36.4116C61.8553 36.0356 61.7431 35.6082 61.7431 35.1291C61.7431 34.644 61.8553 34.2165 62.0796 33.8467C62.304 33.4707 62.6102 33.1766 62.9983 32.9644C63.3864 32.7522 63.829 32.6461 64.3262 32.6461C64.8295 32.6461 65.2752 32.7522 65.6633 32.9644C66.0574 33.1766 66.3636 33.4677 66.5819 33.8376C66.8063 34.2074 66.9184 34.638 66.9184 35.1291C66.9184 35.6082 66.8063 36.0356 66.5819 36.4116C66.3636 36.7875 66.0574 37.0847 65.6633 37.3029C65.2752 37.5152 64.8295 37.6213 64.3262 37.6213ZM64.3262 36.6481C64.6052 36.6481 64.8538 36.5874 65.0721 36.4662C65.2904 36.3449 65.4601 36.169 65.5814 35.9386C65.7087 35.7082 65.7724 35.4384 65.7724 35.1291C65.7724 34.8138 65.7087 34.544 65.5814 34.3196C65.4601 34.0892 65.2904 33.9134 65.0721 33.7921C64.8538 33.6708 64.6082 33.6102 64.3353 33.6102C64.0564 33.6102 63.8078 33.6708 63.5895 33.7921C63.3773 33.9134 63.2075 34.0892 63.0802 34.3196C62.9528 34.544 62.8891 34.8138 62.8891 35.1291C62.8891 35.4384 62.9528 35.7082 63.0802 35.9386C63.2075 36.169 63.3773 36.3449 63.5895 36.4662C63.8078 36.5874 64.0534 36.6481 64.3262 36.6481ZM70.7616 32.6461C71.1496 32.6461 71.4953 32.7219 71.7985 32.8734C72.1077 33.025 72.3502 33.2585 72.5261 33.5738C72.7019 33.883 72.7899 34.2832 72.7899 34.7744V37.5576H71.6529V34.9199C71.6529 34.4894 71.5498 34.168 71.3437 33.9558C71.1436 33.7436 70.8616 33.6375 70.4978 33.6375C70.231 33.6375 69.9945 33.692 69.7884 33.8012C69.5822 33.9103 69.4215 34.074 69.3063 34.2923C69.1971 34.5046 69.1426 34.7744 69.1426 35.1018V37.5576H68.0056V32.7006H69.088V34.0104L68.897 33.6102C69.0668 33.3009 69.3124 33.0645 69.6337 32.9007C69.9612 32.7309 70.3371 32.6461 70.7616 32.6461ZM76.524 37.6213C75.9843 37.6213 75.5113 37.5152 75.1051 37.3029C74.7049 37.0847 74.3926 36.7875 74.1682 36.4116C73.95 36.0356 73.8408 35.6082 73.8408 35.1291C73.8408 34.644 73.9469 34.2165 74.1592 33.8467C74.3774 33.4707 74.6746 33.1766 75.0505 32.9644C75.4325 32.7522 75.8661 32.6461 76.3512 32.6461C76.8241 32.6461 77.2456 32.7491 77.6154 32.9553C77.9853 33.1615 78.2764 33.4525 78.4886 33.8285C78.7008 34.2044 78.8069 34.6471 78.8069 35.1564C78.8069 35.2049 78.8039 35.2595 78.7978 35.3201C78.7978 35.3808 78.7948 35.4384 78.7888 35.4929H74.7413V34.738H78.1884L77.7428 34.9745C77.7488 34.6956 77.6912 34.45 77.57 34.2378C77.4487 34.0255 77.2819 33.8588 77.0697 33.7375C76.8635 33.6162 76.624 33.5556 76.3512 33.5556C76.0722 33.5556 75.8267 33.6162 75.6144 33.7375C75.4083 33.8588 75.2445 34.0286 75.1233 34.2469C75.0081 34.4591 74.9505 34.7107 74.9505 35.0018V35.1837C74.9505 35.4748 75.0172 35.7325 75.1506 35.9568C75.284 36.1812 75.4719 36.354 75.7145 36.4753C75.957 36.5965 76.236 36.6572 76.5513 36.6572C76.8241 36.6572 77.0697 36.6147 77.288 36.5298C77.5063 36.4449 77.7003 36.3115 77.8701 36.1296L78.4795 36.83C78.2612 37.0847 77.9853 37.2817 77.6518 37.4212C77.3244 37.5546 76.9484 37.6213 76.524 37.6213ZM84.6957 37.6213C84.156 37.6213 83.6831 37.5152 83.2768 37.3029C82.8766 37.0847 82.5643 36.7875 82.34 36.4116C82.1217 36.0356 82.0125 35.6082 82.0125 35.1291C82.0125 34.644 82.1186 34.2165 82.3309 33.8467C82.5492 33.4707 82.8463 33.1766 83.2222 32.9644C83.6042 32.7522 84.0378 32.6461 84.5229 32.6461C84.9958 32.6461 85.4173 32.7491 85.7872 32.9553C86.157 33.1615 86.4481 33.4525 86.6603 33.8285C86.8725 34.2044 86.9787 34.6471 86.9787 35.1564C86.9787 35.2049 86.9756 35.2595 86.9696 35.3201C86.9696 35.3808 86.9665 35.4384 86.9605 35.4929H82.913V34.738H86.3602L85.9145 34.9745C85.9206 34.6956 85.8629 34.45 85.7417 34.2378C85.6204 34.0255 85.4537 33.8588 85.2414 33.7375C85.0353 33.6162 84.7957 33.5556 84.5229 33.5556C84.244 33.5556 83.9984 33.6162 83.7861 33.7375C83.58 33.8588 83.4163 34.0286 83.295 34.2469C83.1798 34.4591 83.1222 34.7107 83.1222 35.0018V35.1837C83.1222 35.4748 83.1889 35.7325 83.3223 35.9568C83.4557 36.1812 83.6437 36.354 83.8862 36.4753C84.1287 36.5965 84.4077 36.6572 84.723 36.6572C84.9958 36.6572 85.2414 36.6147 85.4597 36.5298C85.678 36.4449 85.872 36.3115 86.0418 36.1296L86.6512 36.83C86.4329 37.0847 86.157 37.2817 85.8235 37.4212C85.4961 37.5546 85.1202 37.6213 84.6957 37.6213ZM88.0708 37.5576V30.8088H89.2077V37.5576H88.0708ZM95.442 37.6213C94.9327 37.6213 94.4779 37.5152 94.0777 37.3029C93.6835 37.0847 93.3743 36.7875 93.1499 36.4116C92.9256 36.0356 92.8134 35.6082 92.8134 35.1291C92.8134 34.644 92.9256 34.2165 93.1499 33.8467C93.3743 33.4707 93.6835 33.1766 94.0777 32.9644C94.4779 32.7522 94.9327 32.6461 95.442 32.6461C95.915 32.6461 96.3303 32.7431 96.6881 32.9371C97.0519 33.1251 97.3278 33.404 97.5158 33.7739L96.6426 34.2832C96.4971 34.0528 96.3182 33.883 96.106 33.7739C95.8998 33.6648 95.6755 33.6102 95.4329 33.6102C95.154 33.6102 94.9023 33.6708 94.678 33.7921C94.4536 33.9134 94.2778 34.0892 94.1504 34.3196C94.0231 34.544 93.9594 34.8138 93.9594 35.1291C93.9594 35.4444 94.0231 35.7173 94.1504 35.9477C94.2778 36.1721 94.4536 36.3449 94.678 36.4662C94.9023 36.5874 95.154 36.6481 95.4329 36.6481C95.6755 36.6481 95.8998 36.5935 96.106 36.4844C96.3182 36.3752 96.4971 36.2054 96.6426 35.975L97.5158 36.4844C97.3278 36.8482 97.0519 37.1301 96.6881 37.3302C96.3303 37.5243 95.915 37.6213 95.442 37.6213ZM100.61 37.6213C100.113 37.6213 99.6706 37.5152 99.2825 37.3029C98.8944 37.0847 98.5882 36.7875 98.3639 36.4116C98.1395 36.0356 98.0273 35.6082 98.0273 35.1291C98.0273 34.644 98.1395 34.2165 98.3639 33.8467C98.5882 33.4707 98.8944 33.1766 99.2825 32.9644C99.6706 32.7522 100.113 32.6461 100.61 32.6461C101.114 32.6461 101.559 32.7522 101.947 32.9644C102.342 33.1766 102.648 33.4677 102.866 33.8376C103.09 34.2074 103.203 34.638 103.203 35.1291C103.203 35.6082 103.09 36.0356 102.866 36.4116C102.648 36.7875 102.342 37.0847 101.947 37.3029C101.559 37.5152 101.114 37.6213 100.61 37.6213ZM100.61 36.6481C100.889 36.6481 101.138 36.5874 101.356 36.4662C101.575 36.3449 101.744 36.169 101.866 35.9386C101.993 35.7082 102.057 35.4384 102.057 35.1291C102.057 34.8138 101.993 34.544 101.866 34.3196C101.744 34.0892 101.575 33.9134 101.356 33.7921C101.138 33.6708 100.892 33.6102 100.62 33.6102C100.341 33.6102 100.092 33.6708 99.8737 33.7921C99.6615 33.9134 99.4917 34.0892 99.3644 34.3196C99.237 34.544 99.1734 34.8138 99.1734 35.1291C99.1734 35.4384 99.237 35.7082 99.3644 35.9386C99.4917 36.169 99.6615 36.3449 99.8737 36.4662C100.092 36.5874 100.338 36.6481 100.61 36.6481ZM104.29 37.5576V30.8088H105.427V37.5576H104.29ZM109.102 37.6213C108.605 37.6213 108.162 37.5152 107.774 37.3029C107.386 37.0847 107.08 36.7875 106.855 36.4116C106.631 36.0356 106.519 35.6082 106.519 35.1291C106.519 34.644 106.631 34.2165 106.855 33.8467C107.08 33.4707 107.386 33.1766 107.774 32.9644C108.162 32.7522 108.605 32.6461 109.102 32.6461C109.605 32.6461 110.051 32.7522 110.439 32.9644C110.833 33.1766 111.139 33.4677 111.358 33.8376C111.582 34.2074 111.694 34.638 111.694 35.1291C111.694 35.6082 111.582 36.0356 111.358 36.4116C111.139 36.7875 110.833 37.0847 110.439 37.3029C110.051 37.5152 109.605 37.6213 109.102 37.6213ZM109.102 36.6481C109.381 36.6481 109.629 36.5874 109.848 36.4662C110.066 36.3449 110.236 36.169 110.357 35.9386C110.484 35.7082 110.548 35.4384 110.548 35.1291C110.548 34.8138 110.484 34.544 110.357 34.3196C110.236 34.0892 110.066 33.9134 109.848 33.7921C109.629 33.6708 109.384 33.6102 109.111 33.6102C108.832 33.6102 108.583 33.6708 108.365 33.7921C108.153 33.9134 107.983 34.0892 107.856 34.3196C107.728 34.544 107.665 34.8138 107.665 35.1291C107.665 35.4384 107.728 35.7082 107.856 35.9386C107.983 36.169 108.153 36.3449 108.365 36.4662C108.583 36.5874 108.829 36.6481 109.102 36.6481ZM112.781 37.5576V32.7006H113.864V34.0377L113.736 33.6466C113.882 33.3191 114.109 33.0705 114.419 32.9007C114.734 32.7309 115.125 32.6461 115.592 32.6461V33.7284C115.543 33.7163 115.498 33.7102 115.455 33.7102C115.413 33.7042 115.371 33.7011 115.328 33.7011C114.898 33.7011 114.555 33.8285 114.3 34.0831C114.046 34.3318 113.918 34.7047 113.918 35.2019V37.5576H112.781Z" fill="#E9E9E9"/>
<rect x="28.6484" y="68.123" width="54.5729" height="54.5729" rx="4.54774" fill="#3C31BB"/>
<rect x="28.6484" y="142.706" width="54.5729" height="54.5729" rx="4.54774" fill="#265CAB"/>
<rect x="28.6484" y="217.289" width="54.5729" height="54.5729" rx="4.54774" fill="#6D89C0"/>
<rect x="94.5898" y="68.123" width="54.5729" height="54.5729" rx="4.54774" fill="#3685CE"/>
<rect x="94.5898" y="142.706" width="54.5729" height="54.5729" rx="4.54774" fill="#72CBFD"/>
<rect x="94.5898" y="217.289" width="54.5729" height="54.5729" rx="4.54774" fill="#4888E9"/>
<rect x="160.533" y="68.123" width="54.5729" height="54.5729" rx="4.54774" fill="#2A38B5"/>
<rect x="160.533" y="142.706" width="54.5729" height="54.5729" rx="4.54774" fill="#3C57E8"/>
<rect x="160.533" y="217.289" width="54.5729" height="54.5729" rx="4.54774" fill="#2D3070"/>
<rect x="226.475" y="68.123" width="54.5729" height="54.5729" rx="4.54774" fill="#2265CA"/>
<rect x="226.475" y="142.706" width="54.5729" height="54.5729" rx="4.54774" fill="#389AD0"/>
<rect x="226.475" y="217.289" width="54.5729" height="54.5729" rx="4.54774" fill="#4051EA"/>
<rect x="292.416" y="68.123" width="54.5729" height="54.5729" rx="4.54774" fill="#3685CE"/>
<rect x="292.416" y="142.706" width="54.5729" height="54.5729" rx="4.54774" fill="#1D23B6"/>
<rect x="292.416" y="217.289" width="54.5729" height="54.5729" rx="4.54774" fill="#5263FD"/>
<defs>
<filter id="filter0_d_1551_3222" x="0.907035" y="0.361809" width="381.101" height="297.422" filterUnits="userSpaceOnUse" color-interpolation-filters="sRGB">
<feFlood flood-opacity="0" result="BackgroundImageFix"/>
<feColorMatrix in="SourceAlpha" type="matrix" values="0 0 0 0 0 0 0 0 0 0 0 0 0 0 0 0 0 0 127 0" result="hardAlpha"/>
<feMorphology radius="0.454774" operator="erode" in="SourceAlpha" result="effect1_dropShadow_1551_3222"/>
<feOffset dx="5.45729" dy="5.91206"/>
<feGaussianBlur stdDeviation="5.00251"/>
<feComposite in2="hardAlpha" operator="out"/>
<feColorMatrix type="matrix" values="0 0 0 0 0 0 0 0 0 0 0 0 0 0 0 0 0 0 0.25 0"/>
<feBlend mode="normal" in2="BackgroundImageFix" result="effect1_dropShadow_1551_3222"/>
<feBlend mode="normal" in="SourceGraphic" in2="effect1_dropShadow_1551_3222" result="shape"/>
</filter>
</defs>
</svg>
