<svg width="87" height="88" viewBox="0 0 87 88" fill="none" xmlns="http://www.w3.org/2000/svg">
<circle cx="6.3811" cy="22.8801" r="1.76" fill="#226B70"/>
<circle cx="6.3811" cy="33.4402" r="1.76" fill="#226B70"/>
<circle cx="6.3811" cy="43.9997" r="1.76" fill="#226B70"/>
<circle cx="6.3811" cy="54.5598" r="1.76" fill="#226B70"/>
<circle cx="6.3811" cy="65.1199" r="1.76" fill="#226B70"/>
<circle cx="1.76" cy="38.72" r="1.76" fill="#226B70"/>
<circle cx="1.76" cy="49.28" r="1.76" fill="#226B70"/>
<circle cx="15.6174" cy="12.3196" r="1.76" fill="#226B70"/>
<circle cx="15.6174" cy="22.8801" r="1.76" fill="#226B70"/>
<circle cx="15.6174" cy="33.4397" r="1.76" fill="#226B70"/>
<circle cx="15.6174" cy="43.9997" r="1.76" fill="#226B70"/>
<circle cx="15.6174" cy="54.5598" r="1.76" fill="#226B70"/>
<circle cx="15.6174" cy="65.1199" r="1.76" fill="#226B70"/>
<circle cx="15.6174" cy="75.6799" r="1.76" fill="#226B70"/>
<circle cx="11.0002" cy="17.5998" r="1.76" fill="#226B70"/>
<circle cx="11.0002" cy="28.1599" r="1.76" fill="#226B70"/>
<circle cx="2.85961" cy="28.1599" r="1.76" fill="#226B70"/>
<circle cx="11.0002" cy="38.72" r="1.76" fill="#226B70"/>
<circle cx="11.0002" cy="49.28" r="1.76" fill="#226B70"/>
<circle cx="11.0002" cy="59.8401" r="1.76" fill="#226B70"/>
<circle cx="2.85961" cy="59.8401" r="1.76" fill="#226B70"/>
<circle cx="11.0002" cy="70.4001" r="1.76" fill="#226B70"/>
<circle cx="24.8616" cy="12.3196" r="1.76" fill="#226B70"/>
<circle cx="24.8616" cy="22.8801" r="1.76" fill="#226B70"/>
<circle cx="24.8616" cy="33.4397" r="1.76" fill="#226B70"/>
<circle cx="24.8616" cy="43.9997" r="1.76" fill="#226B70"/>
<circle cx="24.8616" cy="54.5598" r="1.76" fill="#226B70"/>
<circle cx="24.8616" cy="65.1199" r="1.76" fill="#226B70"/>
<circle cx="24.8616" cy="75.6799" r="1.76" fill="#226B70"/>
<circle cx="20.2385" cy="7.04028" r="1.76" fill="#226B70"/>
<circle cx="20.2385" cy="17.5998" r="1.76" fill="#226B70"/>
<circle cx="20.2385" cy="28.1599" r="1.76" fill="#226B70"/>
<circle cx="20.2385" cy="38.72" r="1.76" fill="#226B70"/>
<circle cx="20.2385" cy="49.28" r="1.76" fill="#226B70"/>
<circle cx="20.2385" cy="59.8396" r="1.76" fill="#226B70"/>
<circle cx="20.2385" cy="70.4001" r="1.76" fill="#226B70"/>
<circle cx="20.2385" cy="80.9602" r="1.76" fill="#226B70"/>
<circle cx="34.0998" cy="1.76" r="1.76" fill="#226B70"/>
<circle cx="34.0998" cy="12.3201" r="1.76" fill="#226B70"/>
<circle cx="34.0998" cy="22.8801" r="1.76" fill="#226B70"/>
<circle cx="34.0998" cy="33.4397" r="1.76" fill="#226B70"/>
<circle cx="34.0998" cy="43.9997" r="1.76" fill="#226B70"/>
<circle cx="34.0998" cy="54.5598" r="1.76" fill="#226B70"/>
<circle cx="34.0998" cy="65.1199" r="1.76" fill="#226B70"/>
<circle cx="34.0998" cy="75.6804" r="1.76" fill="#226B70"/>
<circle cx="34.0998" cy="86.24" r="1.76" fill="#226B70"/>
<circle cx="29.4807" cy="7.04028" r="1.76" fill="#226B70"/>
<circle cx="29.4807" cy="17.5998" r="1.76" fill="#226B70"/>
<circle cx="29.4807" cy="28.1599" r="1.76" fill="#226B70"/>
<circle cx="29.4807" cy="38.72" r="1.76" fill="#226B70"/>
<circle cx="29.4807" cy="49.28" r="1.76" fill="#226B70"/>
<circle cx="29.4807" cy="59.8396" r="1.76" fill="#226B70"/>
<circle cx="29.4807" cy="70.4001" r="1.76" fill="#226B70"/>
<circle cx="29.4807" cy="80.9602" r="1.76" fill="#226B70"/>
<circle cx="43.3401" cy="1.76" r="1.76" fill="#226B70"/>
<circle cx="43.3401" cy="12.3196" r="1.76" fill="#226B70"/>
<circle cx="43.3401" cy="22.8801" r="1.76" fill="#226B70"/>
<circle cx="43.3401" cy="33.4397" r="1.76" fill="#226B70"/>
<circle cx="43.3401" cy="43.9997" r="1.76" fill="#226B70"/>
<circle cx="43.3401" cy="54.5598" r="1.76" fill="#226B70"/>
<circle cx="43.3401" cy="65.1199" r="1.76" fill="#226B70"/>
<circle cx="43.3401" cy="75.6799" r="1.76" fill="#226B70"/>
<circle cx="43.3401" cy="86.24" r="1.76" fill="#226B70"/>
<circle cx="38.7209" cy="7.04028" r="1.76" fill="#226B70"/>
<circle cx="38.7209" cy="17.5998" r="1.76" fill="#226B70"/>
<circle cx="38.7209" cy="28.1599" r="1.76" fill="#226B70"/>
<circle cx="38.7209" cy="38.72" r="1.76" fill="#226B70"/>
<circle cx="38.7209" cy="49.28" r="1.76" fill="#226B70"/>
<circle cx="38.7209" cy="59.8396" r="1.76" fill="#226B70"/>
<circle cx="38.7209" cy="70.4001" r="1.76" fill="#226B70"/>
<circle cx="38.7209" cy="80.9602" r="1.76" fill="#226B70"/>
<circle cx="52.5784" cy="1.76" r="1.76" fill="#226B70"/>
<circle cx="52.5784" cy="12.3201" r="1.76" fill="#226B70"/>
<circle cx="52.5784" cy="22.8801" r="1.76" fill="#226B70"/>
<circle cx="52.5784" cy="33.4402" r="1.76" fill="#226B70"/>
<circle cx="52.5784" cy="43.9997" r="1.76" fill="#226B70"/>
<circle cx="52.5784" cy="54.5598" r="1.76" fill="#226B70"/>
<circle cx="52.5784" cy="65.1199" r="1.76" fill="#226B70"/>
<circle cx="52.5784" cy="75.6804" r="1.76" fill="#226B70"/>
<circle cx="52.5784" cy="86.24" r="1.76" fill="#226B70"/>
<circle cx="47.9592" cy="7.03979" r="1.76" fill="#226B70"/>
<circle cx="47.9592" cy="17.5998" r="1.76" fill="#226B70"/>
<circle cx="47.9592" cy="28.1599" r="1.76" fill="#226B70"/>
<circle cx="47.9592" cy="38.72" r="1.76" fill="#226B70"/>
<circle cx="47.9592" cy="49.28" r="1.76" fill="#226B70"/>
<circle cx="47.9592" cy="59.8401" r="1.76" fill="#226B70"/>
<circle cx="47.9592" cy="70.4001" r="1.76" fill="#226B70"/>
<circle cx="47.9592" cy="80.9602" r="1.76" fill="#226B70"/>
<circle cx="61.8205" cy="12.3201" r="1.76" fill="#226B70"/>
<circle cx="61.8205" cy="22.8801" r="1.76" fill="#226B70"/>
<circle cx="61.8205" cy="33.4402" r="1.76" fill="#226B70"/>
<circle cx="61.8205" cy="43.9997" r="1.76" fill="#226B70"/>
<circle cx="61.8205" cy="54.5598" r="1.76" fill="#226B70"/>
<circle cx="61.8205" cy="65.1199" r="1.76" fill="#226B70"/>
<circle cx="61.8205" cy="75.6804" r="1.76" fill="#226B70"/>
<circle cx="57.1995" cy="7.04028" r="1.76" fill="#226B70"/>
<circle cx="57.1995" cy="17.5998" r="1.76" fill="#226B70"/>
<circle cx="57.1995" cy="28.1599" r="1.76" fill="#226B70"/>
<circle cx="57.1995" cy="38.72" r="1.76" fill="#226B70"/>
<circle cx="57.1995" cy="49.28" r="1.76" fill="#226B70"/>
<circle cx="57.1995" cy="59.8396" r="1.76" fill="#226B70"/>
<circle cx="57.1995" cy="70.4001" r="1.76" fill="#226B70"/>
<circle cx="57.1995" cy="80.9602" r="1.76" fill="#226B70"/>
<circle cx="71.0608" cy="12.3196" r="1.76" fill="#226B70"/>
<circle cx="71.0608" cy="22.8801" r="1.76" fill="#226B70"/>
<circle cx="71.0608" cy="33.4397" r="1.76" fill="#226B70"/>
<circle cx="71.0608" cy="43.9997" r="1.76" fill="#226B70"/>
<circle cx="71.0608" cy="54.5598" r="1.76" fill="#226B70"/>
<circle cx="71.0608" cy="65.1199" r="1.76" fill="#226B70"/>
<circle cx="71.0608" cy="75.6799" r="1.76" fill="#226B70"/>
<circle cx="66.4416" cy="7.03979" r="1.76" fill="#226B70"/>
<circle cx="66.4416" cy="17.5998" r="1.76" fill="#226B70"/>
<circle cx="66.4416" cy="28.1599" r="1.76" fill="#226B70"/>
<circle cx="66.4416" cy="38.72" r="1.76" fill="#226B70"/>
<circle cx="66.4416" cy="49.28" r="1.76" fill="#226B70"/>
<circle cx="66.4416" cy="59.8401" r="1.76" fill="#226B70"/>
<circle cx="66.4416" cy="70.4001" r="1.76" fill="#226B70"/>
<circle cx="66.4416" cy="80.9602" r="1.76" fill="#226B70"/>
<circle cx="80.2991" cy="22.8801" r="1.76" fill="#226B70"/>
<circle cx="80.2991" cy="33.4397" r="1.76" fill="#226B70"/>
<circle cx="80.2991" cy="43.9997" r="1.76" fill="#226B70"/>
<circle cx="80.2991" cy="54.5598" r="1.76" fill="#226B70"/>
<circle cx="80.2991" cy="65.1199" r="1.76" fill="#226B70"/>
<circle cx="75.6799" cy="17.5998" r="1.76" fill="#226B70"/>
<circle cx="75.6799" cy="28.1599" r="1.76" fill="#226B70"/>
<circle cx="83.1604" cy="28.1599" r="1.76" fill="#226B70"/>
<circle cx="75.6799" cy="38.72" r="1.76" fill="#226B70"/>
<circle cx="75.6799" cy="49.28" r="1.76" fill="#226B70"/>
<circle cx="75.6799" cy="59.8396" r="1.76" fill="#226B70"/>
<circle cx="84.9202" cy="59.8396" r="1.76" fill="#226B70"/>
<circle cx="75.6799" cy="70.4001" r="1.76" fill="#226B70"/>
<circle cx="84.9202" cy="38.72" r="1.76" fill="#226B70"/>
<circle cx="84.9202" cy="49.28" r="1.76" fill="#226B70"/>
</svg>
