<svg width="162" height="169" viewBox="0 0 162 169" fill="none" xmlns="http://www.w3.org/2000/svg">
<path d="M28.3805 13.097C33.572 1.63335 52.986 0.840265 65.6943 0.389648C76.0772 15.7467 100.935 10.4835 108.416 7.41926L141.944 19.8563C145.73 26.4353 153.625 41.3777 154.923 48.5155C156.221 55.6532 159.61 77.445 161.142 87.4487L133.021 89.882C132.39 84.2043 127.821 70.5675 126.523 65.3764C125.225 60.1853 124.459 58.6093 122.746 57.9784C121.665 60.9525 119.502 68.0902 119.502 72.8488V87.4487V99.6154V139.36V168.019H72.9948C59.1509 168.019 36.1337 161.849 26.3096 158.605C23.2728 148.584 32.2201 124.92 35.681 102.425C39.142 79.9301 41.4493 62.2142 40.0073 55.8155L35.681 60.4117L22.7023 76.9043L0.800781 62.8451C7.83091 51.0389 23.189 24.5607 28.3805 13.097Z" fill="#206EE2"/>
<path d="M80.6669 14.0551C69.2487 13.5692 63.8635 4.64112 62.75 0.389648H65.7868C77.4479 14.9661 97.6728 10.411 108.301 7.3742L111.338 8.28523C109.212 10.411 94.9397 14.6624 80.6669 14.0551Z" fill="#390C0C"/>
<path d="M110.125 9.19727C117.717 11.6267 133.63 17.1536 136.545 19.8259C140.189 23.1664 153.247 35.3134 155.373 86.6347" stroke="black" stroke-width="1.38537"/>
<path d="M108.301 10.1064C115.69 12.3334 131.259 17.7591 134.417 21.6461C138.365 26.505 147.779 27.1123 151.726 86.0255" stroke="black" stroke-width="1.38537"/>
<path d="M133.204 89.6717L132.293 84.8129L160.535 79.6504L161.142 87.8496L133.204 89.6717Z" fill="black"/>
<path d="M115.894 55.6593L122.878 57.4814C122.372 59.6071 121.36 63.9798 121.36 64.4657C121.36 64.9516 120.753 78.8397 120.449 85.7231L119.234 135.526L118.627 134.919L116.805 127.327C115.185 117.812 111.703 94.1655 110.731 75.702C109.76 57.2385 113.768 54.6471 115.894 55.6593Z" fill="#295AA4"/>
<path d="M39.6699 55.3554C39.6699 54.1723 39.6699 30.2276 45.5634 21.689C45.7493 21.3285 45.9121 21.1211 46.0471 21.04C45.8816 21.2449 45.7204 21.4615 45.5634 21.689C44.3558 24.0305 42.1721 32.8283 40.2773 55.3554H39.6699Z" fill="#295AA4"/>
</svg>
