<svg width="162" height="169" viewBox="0 0 162 169" fill="none" xmlns="http://www.w3.org/2000/svg">
<path d="M28.3024 13.098C33.4939 1.63433 52.9078 0.841241 65.6162 0.390625C75.9991 15.7476 100.857 10.4844 108.338 7.42024L141.866 19.8573C145.651 26.4362 153.547 41.3787 154.845 48.5164C156.143 55.6542 159.531 77.446 161.064 87.4497L132.943 89.883C132.312 84.2053 127.742 70.5684 126.445 65.3773C125.147 60.1862 124.381 58.6103 122.668 57.9794C121.587 60.9535 119.424 68.0912 119.424 72.8497V87.4497V99.6163V139.361V168.02H72.9167C59.0727 168.02 36.0556 161.85 26.2315 158.606C23.1947 148.585 32.1419 124.921 35.6029 102.426C39.0639 79.9311 41.3712 62.2152 39.9291 55.8164L35.6029 60.4127L22.6242 76.9053L0.722656 62.8461C7.75279 51.0399 23.1109 24.5617 28.3024 13.098Z" fill="#62FF71"/>
<path d="M80.5888 14.0561C69.1705 13.5702 63.7854 4.64209 62.6719 0.390625H65.7086C77.3698 14.9671 97.5946 10.4119 108.223 7.37518L111.26 8.28621C109.134 10.4119 94.8616 14.6634 80.5888 14.0561Z" fill="#390C0C"/>
<path d="M110.047 9.19824C117.639 11.6277 133.551 17.1546 136.467 19.8269C140.111 23.1673 153.169 35.3144 155.295 86.6357" stroke="black" stroke-width="1.38537"/>
<path d="M108.223 10.1074C115.612 12.3344 131.181 17.7601 134.339 21.6471C138.287 26.5059 147.701 27.1133 151.648 86.0265" stroke="black" stroke-width="1.38537"/>
<path d="M133.126 89.6727L132.215 84.8139L160.457 79.6514L161.064 87.8506L133.126 89.6727Z" fill="black"/>
<path d="M115.816 55.6603L122.8 57.4824C122.294 59.608 121.282 63.9808 121.282 64.4667C121.282 64.9526 120.675 78.8407 120.371 85.724L119.156 135.527L118.549 134.92L116.727 127.328C115.107 117.813 111.625 94.1665 110.653 75.7029C109.681 57.2394 113.69 54.6481 115.816 55.6603Z" fill="#47E457"/>
<path d="M39.5918 55.3564C39.5918 54.1732 39.5918 30.2286 45.4853 21.6899C45.6712 21.3295 45.834 21.122 45.969 21.041C45.8035 21.2459 45.6423 21.4624 45.4853 21.6899C44.2776 24.0315 42.094 32.8293 40.1991 55.3564H39.5918Z" fill="#47E457"/>
</svg>
