<svg width="157" height="164" viewBox="0 0 157 164" fill="none" xmlns="http://www.w3.org/2000/svg">
<path d="M27.1999 12.7304C32.2413 1.59835 51.0937 0.828207 63.4344 0.390625C73.517 15.3034 97.6558 10.1925 104.92 7.2169L137.479 19.2942C141.155 25.6829 148.822 40.1931 150.082 47.1244C151.342 54.0557 154.633 75.2171 156.121 84.9315L128.814 87.2944C128.201 81.7809 123.764 68.5385 122.503 63.4976C121.243 58.4566 120.499 56.9262 118.836 56.3136C117.786 59.2016 115.686 66.1329 115.686 70.7538V84.9315V96.7462V135.341V163.171H70.5237C57.0802 163.171 34.7289 157.18 25.1889 154.029C22.24 144.298 30.9284 121.318 34.2893 99.4744C37.6502 77.6303 39.8908 60.4269 38.4904 54.2132L34.2893 58.6765L21.686 74.692L0.417969 61.0395C7.24475 49.5748 22.1586 23.8625 27.1999 12.7304Z" fill="#FC3B3B"/>
<path d="M77.9768 13.6608C66.8888 13.1889 61.6594 4.51912 60.5781 0.390625H63.527C74.8509 14.5455 94.4907 10.1221 104.812 7.17315L107.761 8.05782C105.697 10.1221 91.8367 14.2506 77.9768 13.6608Z" fill="#390C0C"/>
<path d="M106.578 8.94336C113.95 11.3025 129.403 16.6695 132.234 19.2646C135.772 22.5084 148.453 34.3041 150.517 84.1409" stroke="black" stroke-width="1.38537"/>
<path d="M104.809 9.82617C111.984 11.9887 127.102 17.2575 130.169 21.0321C134.003 25.7504 143.145 26.3401 146.978 83.5492" stroke="black" stroke-width="1.38537"/>
<path d="M128.99 87.0879L128.105 82.3696L155.53 77.3564L156.12 85.3185L128.99 87.0879Z" fill="black"/>
<path d="M112.182 54.0609L118.964 55.8302C118.473 57.8944 117.49 62.1407 117.49 62.6125C117.49 63.0844 116.9 76.5708 116.605 83.255L115.426 131.617L114.836 131.028L113.066 123.655C111.494 114.415 108.112 91.4532 107.168 73.5238C106.225 55.5943 110.117 53.0779 112.182 54.0609Z" fill="#DB3535"/>
<path d="M38.1641 53.7662C38.1641 52.6172 38.1641 29.3652 43.8871 21.0735C44.0676 20.7235 44.2257 20.522 44.3568 20.4434C44.1961 20.6423 44.0396 20.8526 43.8871 21.0735C42.7144 23.3473 40.5938 31.8906 38.7538 53.7662H38.1641Z" fill="#DB3535"/>
</svg>
