<svg width="143" height="144" viewBox="0 0 143 144" fill="none" xmlns="http://www.w3.org/2000/svg">
<circle cx="71.1214" cy="13.4553" r="12.5773" fill="#E81D21" stroke="white" stroke-width="1.75608"/>
<circle cx="72.0818" cy="129.748" r="12.5773" transform="rotate(-180 72.0818 129.748)" fill="#319D48" stroke="white" stroke-width="1.75608"/>
<circle cx="101.877" cy="21.1442" r="13.4553" fill="#7F287F"/>
<circle cx="41.3279" cy="122.059" r="13.4553" transform="rotate(-180 41.3279 122.059)" fill="#ABC435"/>
<circle cx="123.983" cy="42.2882" r="13.4553" fill="#5E2C81"/>
<circle cx="19.2224" cy="100.915" r="13.4553" transform="rotate(-180 19.2224 100.915)" fill="#EFE21C"/>
<circle cx="40.3655" cy="21.1442" r="13.4553" fill="#DD4B26"/>
<circle cx="102.838" cy="122.059" r="13.4553" transform="rotate(-180 102.838 122.059)" fill="#03907F"/>
<circle cx="20.1819" cy="42.2882" r="13.4553" fill="#DF7126"/>
<circle cx="123.019" cy="100.915" r="13.4553" transform="rotate(-180 123.019 100.915)" fill="#055A9A"/>
<circle cx="128.787" cy="72.0821" r="13.4553" transform="rotate(-180 128.787 72.0821)" fill="#3E2F80"/>
<circle cx="13.4548" cy="72.0821" r="13.4553" transform="rotate(-180 13.4548 72.0821)" fill="#EC9F1B"/>
<path d="M72 25.4631V116.34" stroke="white" stroke-width="0.878038" stroke-dasharray="1.76 1.76"/>
</svg>
