<svg width="143" height="144" viewBox="0 0 143 144" fill="none" xmlns="http://www.w3.org/2000/svg">
<circle cx="71.1214" cy="13.4553" r="12.5773" fill="#938A3D" stroke="white" stroke-width="1.75608"/>
<circle cx="72.0818" cy="129.748" r="12.5773" transform="rotate(-180 72.0818 129.748)" fill="#938A3D" stroke="white" stroke-width="1.75608"/>
<circle cx="101.877" cy="21.1442" r="13.4553" fill="#5F5C49"/>
<circle cx="41.3279" cy="122.059" r="13.4553" transform="rotate(-180 41.3279 122.059)" fill="#ECDD44"/>
<circle cx="123.983" cy="42.2882" r="13.4553" fill="#39559F"/>
<circle cx="19.2224" cy="100.915" r="13.4553" transform="rotate(-180 19.2224 100.915)" fill="#F7EE51"/>
<circle cx="40.3655" cy="21.1442" r="13.4553" fill="#9A943D"/>
<circle cx="102.838" cy="122.059" r="13.4553" transform="rotate(-180 102.838 122.059)" fill="#7682BE"/>
<circle cx="20.1819" cy="42.2882" r="13.4553" fill="#C0B340"/>
<circle cx="123.019" cy="100.915" r="13.4553" transform="rotate(-180 123.019 100.915)" fill="#4E61AD"/>
<circle cx="128.787" cy="72.0821" r="13.4553" transform="rotate(-180 128.787 72.0821)" fill="#304096"/>
<circle cx="13.4548" cy="72.0821" r="13.4553" transform="rotate(-180 13.4548 72.0821)" fill="#D4C73B"/>
<path d="M71.1211 25.4631V116.34" stroke="white" stroke-width="0.878038" stroke-dasharray="1.76 1.76"/>
</svg>
