<svg width="415" height="208" viewBox="0 0 415 208" fill="none" xmlns="http://www.w3.org/2000/svg">
<path d="M45.7782 190.599H18.1952C19.5586 175.689 22.6701 160.986 27.4689 146.796C28.8075 142.837 30.2774 138.919 31.8773 135.047C41.434 111.92 55.4404 90.9084 73.0947 73.2115C90.7489 55.5148 111.705 41.4792 134.766 31.904C157.827 22.329 182.542 17.4013 207.5 17.4013C232.458 17.4013 257.173 22.3289 280.234 31.904C303.295 41.4792 324.251 55.5148 341.905 73.2115L354.225 60.9218L341.905 73.2115C359.56 90.9083 373.566 111.92 383.123 135.047C384.723 138.919 386.192 142.837 387.531 146.796C392.33 160.986 395.441 175.689 396.805 190.599H369.222C367.569 175.171 363.723 160.028 357.776 145.636C349.605 125.863 337.628 107.893 322.527 92.7555C307.425 77.6175 289.494 65.6071 269.758 57.4121C250.021 49.2172 228.865 44.9987 207.5 44.9987C186.135 44.9987 164.979 49.2172 145.242 57.4121C125.506 65.6071 107.575 77.6175 92.4734 92.7555C77.3718 107.893 65.3948 125.863 57.2242 145.636C51.2772 160.028 47.4312 175.171 45.7782 190.599Z" fill="#00EFD8" stroke="#00EFD8" stroke-width="34.8025"/>
</svg>
