<svg width="133" height="132" viewBox="0 0 133 132" fill="none" xmlns="http://www.w3.org/2000/svg">
<g clip-path="url(#clip0_1303_4651)">
<path d="M53.7709 26.1901C51.0009 18.5701 48.2709 11.0701 45.4609 3.32012C59.4509 -1.12988 73.2909 -1.07988 87.3809 3.27012C87.1009 4.13012 86.8709 4.89012 86.6109 5.63012C84.3009 12.0201 81.9709 18.4001 79.6709 24.8001C79.3109 25.7901 79.0009 26.2801 77.7409 25.9301C70.0109 23.7701 62.2609 23.8801 54.5409 26.0501C54.3609 26.1001 54.1709 26.1201 53.7809 26.1901H53.7709Z" fill="#706F6F"/>
<path d="M133 83.2199C132.57 84.9199 132.27 86.2799 131.88 87.6199C129.1 97.0299 124.51 105.47 118.21 112.96C116.67 114.79 114.89 116.43 113.22 118.16C112.54 118.87 112.05 119.04 111.28 118.1C106.73 112.57 102.12 107.09 97.4996 101.62C96.8496 100.85 96.7696 100.27 97.5196 99.5199C103.1 93.9699 106.82 87.3199 108.85 79.7299C109.17 78.5599 109.8 78.6199 110.66 78.7699C116.29 79.7699 121.91 80.7699 127.54 81.7699C128.96 82.0199 130.38 82.2299 131.79 82.5399C132.24 82.6399 132.62 82.9999 133 83.2299V83.2199Z" fill="#1D1D1B"/>
<path d="M0 83.3201C0.49 83.0801 1.02 82.6501 1.61 82.5401C5.62 81.7901 9.64 81.1001 13.66 80.3901C16.59 79.8701 19.53 79.3701 22.45 78.7901C23.39 78.6001 23.77 78.9501 23.99 79.8001C25.31 84.9501 27.52 89.7001 30.6 94.0001C32.04 96.0201 33.74 97.8801 35.46 99.6701C36.13 100.37 36.02 100.77 35.54 101.35C33.51 103.79 31.48 106.22 29.44 108.66C26.98 111.61 24.5 114.55 22.06 117.52C20.93 118.9 20.64 119 19.35 117.74C13.22 111.73 8.12 104.95 4.76 97.0101C3.03 92.9101 1.74 88.6101 0.26 84.4001C0.18 84.1701 0.14 83.9301 0 83.3201H0Z" fill="#C6C6C6"/>
<path d="M66.3992 83.0401C58.3792 83.0301 51.8492 76.4401 51.8692 68.3601C51.8892 60.3101 58.4992 53.7301 66.5092 53.7801C74.5292 53.8301 81.0592 60.4201 81.0492 68.4801C81.0492 76.5001 74.4392 83.0601 66.3892 83.0501L66.3992 83.0401Z" fill="#F6F6F6"/>
<path d="M129.849 69.2199C129.749 70.6999 129.539 73.1899 129.409 75.6999C129.359 76.7699 128.909 76.9899 127.939 76.8199C122.889 75.8999 117.819 75.0499 112.769 74.1099C110.019 73.5999 110.109 73.5499 110.239 70.6999C110.569 63.6499 109.329 56.8799 106.409 50.4499C105.559 48.5699 105.519 48.5799 107.249 47.5799C111.859 44.8999 116.479 42.2499 121.069 39.5299C122.119 38.9099 122.659 38.9599 123.249 40.1599C127.579 49.0099 129.749 58.3499 129.849 69.2199Z" fill="#3C3C3B"/>
<path d="M119.95 34.4299C119.54 34.7299 119.22 35.0099 118.87 35.2099C114.09 37.9899 109.28 40.7199 104.53 43.5499C103.45 44.1899 102.93 44.0199 102.23 43.0199C97.7296 36.6199 91.8996 31.7699 84.8096 28.4899C84.0396 28.1299 83.8096 27.7699 84.1096 26.9599C86.1196 21.4799 88.1096 15.9999 90.0796 10.5099C90.3796 9.6699 90.7996 9.6799 91.5096 9.9899C98.0696 12.8999 104.04 16.7399 109.32 21.6199C112.87 24.8999 116.03 28.5199 118.75 32.5199C119.15 33.1099 119.52 33.7199 119.97 34.4299H119.95Z" fill="#575756"/>
<path d="M68.9493 122.11C68.9493 119.41 68.9993 116.7 68.9293 114C68.8993 112.84 69.2893 112.35 70.4393 112.26C75.6193 111.84 80.5693 110.48 85.2293 108.19C87.3293 107.16 89.3393 105.91 91.3193 104.65C92.3393 104 92.9593 103.9 93.8293 104.97C97.1893 109.12 100.649 113.19 104.079 117.28C105.169 118.58 105.129 118.7 103.749 119.71C96.3393 125.14 88.1193 128.76 79.1593 130.62C76.2493 131.23 73.2593 131.41 70.3093 131.79C69.2993 131.92 68.9393 131.51 68.9593 130.5C68.9993 127.7 68.9693 124.9 68.9693 122.1H68.9593L68.9493 122.11Z" fill="#313130"/>
<path d="M26.8307 48.4299C25.6307 52.3499 24.3607 55.9899 23.4407 59.7099C22.4307 63.7999 22.2907 68.0099 22.7107 72.2099C22.7907 73.0099 22.8607 73.5499 21.7907 73.7299C16.2007 74.6699 10.6207 75.6599 5.04072 76.6999C4.03072 76.8899 3.68072 76.66 3.57072 75.6199C2.30072 63.2699 4.23072 51.4999 9.70072 40.3299C10.2807 39.1399 10.7507 39.0299 11.8507 39.6799C16.3507 42.3499 20.9107 44.9399 25.4407 47.5599C25.9807 47.8699 26.4907 48.2099 26.8307 48.4199V48.4299Z" fill="#B2B2B2"/>
<path d="M42.1306 9.87988C42.3606 10.1799 42.6806 10.4599 42.8106 10.8199C44.7806 16.1999 46.7106 21.5999 48.6706 26.9899C48.9406 27.7299 48.7606 28.0699 48.0206 28.4199C40.9106 31.7499 35.0006 36.5599 30.5506 43.0699C29.9406 43.9599 29.4206 44.0399 28.5506 43.5199C23.7806 40.7199 19.0006 37.9599 14.2106 35.1999C13.4406 34.7499 13.0806 34.3699 13.7206 33.4099C20.5506 23.1699 29.5606 15.5299 40.7406 10.4599C41.1306 10.2799 41.5406 10.1299 42.1306 9.88988V9.87988Z" fill="#9D9D9C"/>
<path d="M63.8307 122.2C63.8307 124.8 63.7607 127.41 63.8607 130C63.9107 131.35 63.4407 131.88 62.1407 131.65C58.0307 130.96 53.8207 130.61 49.8307 129.47C45.5307 128.24 41.3407 126.46 37.2807 124.54C34.4407 123.2 31.8807 121.25 29.2007 119.57C28.1507 118.91 28.0707 118.24 28.9207 117.25C32.4207 113.17 35.8707 109.06 39.2807 104.91C39.9507 104.09 40.4207 104.01 41.2807 104.62C46.9807 108.65 53.3407 111.05 60.2107 112.14C60.3507 112.16 60.4907 112.2 60.6407 112.2C64.4907 112.34 63.8107 112.45 63.8807 115.96C63.9307 118.03 63.8807 120.1 63.8807 122.18H63.8307V122.2Z" fill="#DADADA"/>
<path d="M28.6699 77.64C32.1399 77.01 35.3799 76.42 38.6299 75.85C41.2799 75.38 43.9299 74.98 46.5699 74.47C47.4199 74.3 47.7799 74.47 48.1999 75.31C49.1499 77.24 50.2899 79.07 51.4499 80.89C51.8499 81.52 51.9399 81.93 51.4499 82.52C47.7399 86.93 44.0399 91.35 40.3499 95.78C39.9199 96.29 39.5099 96.59 38.9399 96C33.9099 90.89 30.5099 84.86 28.6899 77.64H28.6699Z" fill="#B9B9B8"/>
<path d="M93.3891 96.64C93.0591 96.33 92.8691 96.19 92.7191 96.01C88.7691 91.29 84.8291 86.56 81.0391 82.02C82.3791 79.53 83.6191 77.17 84.9191 74.84C85.0691 74.56 85.6091 74.3 85.9191 74.35C91.8291 75.37 97.7391 76.43 103.649 77.49C103.819 77.52 103.979 77.65 104.249 77.78C102.409 85.08 98.8691 91.33 93.3891 96.64Z" fill="#898988"/>
<path d="M34.2502 46.7101C36.8102 41.6801 45.9002 34.0701 50.9002 32.8301C51.5802 34.6901 52.2902 36.5701 52.9702 38.4601C54.3302 42.2101 55.6502 45.9801 57.0602 49.7201C57.4102 50.6401 57.3102 51.0601 56.4402 51.6701C54.7302 52.8801 53.1802 54.3201 51.6302 55.7501C51.1002 56.2301 50.7702 56.5001 50.0502 56.0801C44.9902 53.1301 39.9102 50.2101 34.8402 47.2701C34.6002 47.1301 34.4302 46.8901 34.2402 46.7101H34.2502Z" fill="#BDBCBC"/>
<path d="M27.7497 72.51C26.9497 65.29 28.1897 58.52 31.1197 52.01C31.4397 51.31 31.8197 51.2 32.4697 51.58C37.4997 54.5 42.5397 57.4 47.5397 60.36C47.8797 60.56 48.1097 61.3 48.0497 61.74C47.7297 64.02 47.3197 66.28 46.8697 68.54C46.7997 68.9 46.3897 69.42 46.0597 69.48C40.1497 70.56 34.2297 71.58 28.3197 72.6C28.1897 72.62 28.0497 72.56 27.7497 72.51Z" fill="#C3C3C3"/>
<path d="M101.41 51.26C104.64 58.01 105.98 65.02 105.16 72.67C104.08 72.51 103.11 72.38 102.14 72.22C97.2204 71.36 92.3103 70.47 87.3803 69.64C86.3603 69.47 86.0304 69.1 85.9304 67.99C85.7504 65.94 85.2104 63.93 84.8904 61.89C84.8204 61.43 84.8904 60.65 85.1804 60.48C90.3904 57.4 95.6404 54.38 100.88 51.35C100.96 51.31 101.06 51.31 101.4 51.25L101.41 51.26Z" fill="#9A9A9A"/>
<path d="M98.84 46.78C94.8899 49.08 91.11 51.27 87.33 53.47C85.88 54.32 84.4 55.13 82.97 56.01C82.29 56.43 81.91 56.37 81.28 55.77C79.69 54.25 77.91 52.93 76.27 51.47C75.94 51.18 75.6 50.51 75.72 50.17C77.74 44.45 79.84 38.75 81.93 33.05C81.96 32.97 82.06 32.92 82.25 32.74C89.02 35.78 94.53 40.39 98.85 46.78H98.84Z" fill="#A09F9F"/>
<path d="M55.6506 30.92C62.8606 28.82 70.0106 28.85 77.3906 30.93C76.6906 32.87 76.0606 34.67 75.4006 36.46C73.9906 40.35 72.5506 44.23 71.1706 48.14C70.8806 48.97 70.5306 49.18 69.6206 49.13C67.4806 49.01 65.3206 49.13 63.1806 49.08C62.7306 49.07 62.0106 48.79 61.8906 48.45C59.8006 42.86 57.7806 37.24 55.7506 31.63C55.6906 31.46 55.6906 31.26 55.6406 30.91L55.6506 30.92Z" fill="#878787"/>
<path d="M68.9497 107.4V105.01C68.9497 99.7601 68.9597 94.5101 68.9297 89.2601C68.9297 88.3001 69.1597 87.8801 70.1897 87.5901C72.1997 87.0301 74.1197 86.1301 76.1097 85.4501C76.5297 85.3101 77.2997 85.3101 77.5297 85.5801C81.4597 90.1901 85.3197 94.8501 89.1997 99.5101C89.2497 99.5801 89.2597 99.6901 89.3497 99.9801C83.3697 104.34 76.6697 106.81 68.9597 107.4H68.9497Z" fill="#8A8989"/>
<path d="M43.5295 99.9699C43.8095 99.5199 43.9695 99.1799 44.2095 98.8899C47.8195 94.5699 51.4495 90.2899 55.0295 85.9499C55.6795 85.1699 56.1395 85.1299 57.0595 85.5399C58.9295 86.3699 60.8895 86.9999 62.8395 87.6399C63.4695 87.8499 63.9795 87.9299 63.9695 88.7999C63.9295 94.7299 63.9395 100.65 63.9295 106.57C63.9295 106.76 63.8595 106.94 63.7895 107.34C56.3195 106.86 49.6595 104.33 43.5195 99.9699H43.5295Z" fill="#EDEDED"/>
</g>
<defs>
<clipPath id="clip0_1303_4651">
<rect width="133" height="131.82" fill="white"/>
</clipPath>
</defs>
</svg>
