<svg width="179" height="177" viewBox="0 0 179 177" fill="none" xmlns="http://www.w3.org/2000/svg">
<path d="M73.5683 38.7009C70.1338 29.2482 66.7493 19.9358 63.2539 10.3178C80.6093 4.80078 97.7821 4.86188 115.259 10.2567C114.912 11.3206 114.633 12.2658 114.299 13.1895C111.431 21.1182 108.537 29.0398 105.693 36.9757C105.253 38.2085 104.866 38.8123 103.297 38.3738C93.7029 35.6926 84.094 35.8255 74.5102 38.5247C74.2882 38.5894 74.0518 38.6074 73.5683 38.6937V38.7009Z" fill="#F4DA22"/>
<path d="M171.864 109.474C171.331 111.58 170.962 113.273 170.471 114.933C167.022 126.611 161.324 137.08 153.506 146.375C151.59 148.65 149.38 150.677 147.317 152.826C146.472 153.707 145.87 153.912 144.914 152.747C139.273 145.882 133.55 139.086 127.82 132.297C127.014 131.344 126.911 130.625 127.845 129.694C134.768 122.804 139.381 114.556 141.899 105.136C142.289 103.68 143.081 103.752 144.141 103.942C151.121 105.186 158.101 106.426 165.081 107.666C166.839 107.979 168.609 108.237 170.353 108.622C170.908 108.744 171.388 109.197 171.861 109.474H171.864Z" fill="#93830D"/>
<path d="M6.85547 109.592C7.46072 109.29 8.1197 108.762 8.8503 108.625C13.8249 107.691 18.8173 106.843 23.799 105.958C27.4341 105.315 31.0764 104.697 34.7008 103.978C35.8719 103.744 36.3411 104.172 36.6097 105.225C38.2428 111.612 40.9897 117.507 44.8075 122.847C46.5982 125.356 48.7005 127.66 50.8421 129.885C51.6766 130.751 51.5405 131.251 50.9424 131.969C48.4247 134.996 45.8998 138.015 43.3785 141.037C40.3236 144.7 37.2436 148.344 34.2245 152.036C32.8206 153.754 32.4624 153.876 30.8651 152.309C23.2582 144.854 16.9371 136.433 12.7683 126.582C10.6159 121.489 9.02221 116.155 7.18138 110.929C7.0811 110.649 7.03812 110.351 6.85547 109.592Z" fill="#0D3B73"/>
<path d="M89.2365 109.244C79.2802 109.226 71.1898 101.049 71.2149 91.0217C71.24 81.0336 79.4378 72.864 89.3761 72.9251C99.3324 72.9862 107.423 81.1665 107.419 91.1655C107.416 101.118 99.2214 109.262 89.2365 109.244Z" fill="#D9D9D9"/>
<path d="M167.956 92.0958C167.827 93.9289 167.566 97.027 167.415 100.132C167.351 101.459 166.799 101.739 165.596 101.52C159.325 100.38 153.039 99.3201 146.772 98.1556C143.366 97.523 143.47 97.4583 143.635 93.9289C144.039 85.1843 142.503 76.7811 138.882 68.7949C137.826 66.4623 137.776 66.4767 139.924 65.2295C145.644 61.9085 151.378 58.6163 157.072 55.245C158.376 54.4722 159.042 54.5369 159.772 56.0249C165.144 67.005 167.838 78.5998 167.959 92.0923L167.956 92.0958Z" fill="#A39116"/>
<path d="M155.673 48.927C155.168 49.2972 154.77 49.6422 154.326 49.8974C148.392 53.3478 142.429 56.7407 136.53 60.2522C135.191 61.0501 134.55 60.8416 133.672 59.5944C128.085 51.6477 120.858 45.6311 112.055 41.559C111.095 41.1133 110.816 40.6676 111.188 39.654C113.684 32.8575 116.152 26.0502 118.595 19.2356C118.967 18.1969 119.49 18.2005 120.367 18.5887C128.511 22.2008 135.907 26.9595 142.457 33.0228C146.859 37.0986 150.777 41.5913 154.158 46.5512C154.659 47.2844 155.114 48.0464 155.673 48.927Z" fill="#C7B21C"/>
<path d="M92.3941 157.736C92.3941 154.383 92.4586 151.03 92.3655 147.676C92.3261 146.235 92.8167 145.631 94.2385 145.513C100.667 144.988 106.806 143.299 112.593 140.466C115.204 139.19 117.693 137.641 120.15 136.074C121.418 135.266 122.188 135.14 123.259 136.47C127.424 141.624 131.725 146.666 135.976 151.748C137.326 153.366 137.283 153.51 135.568 154.767C126.378 161.507 116.175 165.992 105.058 168.303C101.451 169.054 97.7375 169.277 94.0738 169.755C92.8239 169.92 92.3726 169.406 92.3941 168.149C92.4478 164.677 92.412 161.205 92.412 157.729H92.3977L92.3941 157.736Z" fill="#968626"/>
<path d="M40.1471 66.301C38.6644 71.171 37.0814 75.6781 35.9389 80.3002C34.6819 85.3787 34.51 90.601 35.0293 95.8162C35.1295 96.8082 35.2191 97.4803 33.8904 97.7031C26.9532 98.8712 20.0268 100.104 13.1076 101.391C11.8541 101.624 11.4171 101.337 11.2846 100.054C9.71241 84.7318 12.1048 70.1251 18.8915 56.2589C19.615 54.7817 20.1916 54.6415 21.5561 55.4502C27.143 58.7676 32.7945 61.9736 38.4208 65.2263C39.087 65.6109 39.728 66.035 40.1471 66.2974V66.301Z" fill="#8F939F"/>
<path d="M59.1288 18.4521C59.4118 18.8295 59.8165 19.1746 59.9776 19.6131C62.4165 26.2946 64.8161 32.9905 67.2478 39.6792C67.5809 40.5957 67.3624 41.0199 66.4384 41.4512C57.6139 45.5808 50.29 51.5471 44.7603 59.6268C44.0082 60.7266 43.3635 60.8273 42.2748 60.1875C36.3619 56.7155 30.424 53.2867 24.4896 49.8579C23.5298 49.3044 23.0893 48.83 23.8844 47.6367C32.3615 34.9349 43.5319 25.45 57.4026 19.1602C57.8897 18.941 58.3911 18.7541 59.1288 18.4557V18.4521Z" fill="#887D40"/>
<path d="M86.0469 157.847C86.0469 161.078 85.9645 164.309 86.0827 167.533C86.1436 169.212 85.567 169.862 83.9446 169.585C78.8447 168.726 73.623 168.299 68.6771 166.883C63.3373 165.355 58.1442 163.141 53.1016 160.769C49.574 159.112 46.4044 156.69 43.0773 154.605C41.7773 153.789 41.6698 152.952 42.7264 151.723C47.0634 146.662 51.3539 141.555 55.5835 136.404C56.418 135.387 56.9946 135.286 58.0619 136.041C65.1351 141.044 73.0249 144.02 81.5451 145.379C81.7205 145.408 81.896 145.451 82.0751 145.458C86.8491 145.63 86.0039 145.771 86.1006 150.123C86.1579 152.693 86.1113 155.266 86.1113 157.84C86.0898 157.84 86.0648 157.84 86.0433 157.84L86.0469 157.847Z" fill="#16427F"/>
<path d="M42.4219 102.548C46.7231 101.772 50.7522 101.038 54.7813 100.327C58.0654 99.748 61.3603 99.2448 64.6337 98.6122C65.6902 98.4074 66.1307 98.6122 66.65 99.651C67.8319 102.041 69.2393 104.323 70.6791 106.573C71.1805 107.36 71.2807 107.867 70.6683 108.597C66.0626 114.067 61.4749 119.559 56.8979 125.051C56.3642 125.691 55.8557 126.054 55.143 125.331C48.897 118.988 44.6853 111.508 42.4255 102.541L42.4219 102.548Z" fill="#7C97D9"/>
<path d="M122.716 126.13C122.308 125.746 122.072 125.566 121.889 125.343C116.993 119.481 112.101 113.615 107.402 107.987C109.061 104.896 110.601 101.963 112.219 99.0771C112.409 98.7357 113.075 98.4014 113.455 98.4661C120.793 99.7276 128.121 101.047 135.448 102.366C135.663 102.405 135.86 102.56 136.193 102.725C133.915 111.79 129.514 119.539 122.72 126.13H122.716Z" fill="#BCAF77"/>
<path d="M49.3477 64.1662C52.5244 57.9196 63.7986 48.4778 70.0087 46.9395C70.8575 49.2505 71.7278 51.5867 72.5766 53.9265C74.267 58.5845 75.9073 63.2605 77.655 67.897C78.0883 69.0435 77.9666 69.5539 76.885 70.3194C74.7612 71.8182 72.8344 73.6117 70.9148 75.38C70.263 75.9802 69.844 76.3109 68.9594 75.7933C62.6848 72.1273 56.3815 68.5116 50.0926 64.8635C49.7989 64.6946 49.584 64.3891 49.3477 64.1627V64.1662Z" fill="#A29C88"/>
<path d="M41.2877 96.175C40.2957 87.2183 41.8285 78.808 45.4744 70.7391C45.8683 69.8694 46.3482 69.7364 47.1469 70.2C53.3821 73.8265 59.6424 77.4171 65.8453 81.0975C66.2643 81.3455 66.558 82.2656 66.4792 82.8119C66.0781 85.6369 65.5731 88.4511 65.0144 91.251C64.9249 91.7003 64.4163 92.3436 64.0152 92.4155C56.6841 93.7525 49.3423 95.0177 42.0004 96.2864C41.8393 96.3152 41.6602 96.2361 41.2877 96.1714V96.175Z" fill="#99A1B9"/>
<path d="M132.672 69.8088C136.676 78.1796 138.338 86.8811 137.324 96.3804C135.988 96.1792 134.781 96.0246 133.582 95.8162C127.475 94.7487 121.38 93.6453 115.266 92.6138C114.006 92.4017 113.59 91.9452 113.472 90.5723C113.254 88.0312 112.573 85.5369 112.179 83.0066C112.09 82.4351 112.19 81.4647 112.545 81.2526C119.005 77.4249 125.516 73.6833 132.02 69.9274C132.117 69.8735 132.249 69.8807 132.665 69.8088H132.672Z" fill="#CABA6C"/>
<path d="M129.489 64.2487C124.583 67.0989 119.898 69.8232 115.214 72.5476C113.409 73.5971 111.582 74.6106 109.802 75.7033C108.957 76.2208 108.488 76.1525 107.704 75.4085C105.727 73.5252 103.524 71.8863 101.483 70.0676C101.078 69.7046 100.648 68.8708 100.795 68.4539C103.306 61.3554 105.906 54.2857 108.495 47.2124C108.531 47.1153 108.66 47.0471 108.896 46.8242C117.302 50.5981 124.128 56.3128 129.489 64.2451V64.2487Z" fill="#E0CD73"/>
<path d="M75.8945 44.5672C84.8444 41.9614 93.7084 42.001 102.87 44.5852C102.006 46.9968 101.215 49.2288 100.406 51.4536C98.6543 56.2841 96.8636 61.1003 95.1624 65.9488C94.8007 66.9839 94.3673 67.2391 93.2392 67.1744C90.5818 67.0199 87.9101 67.1852 85.2455 67.1133C84.6868 67.099 83.7987 66.7503 83.6447 66.337C81.0517 59.4003 78.5483 52.4276 76.0306 45.4585C75.9518 45.2465 75.9554 45.0021 75.8945 44.5708V44.5672Z" fill="#FFED78"/>
<path d="M92.396 139.474C92.396 138.274 92.396 137.393 92.396 136.513C92.396 129.997 92.4103 123.48 92.3673 116.964C92.3602 115.774 92.6467 115.25 93.9288 114.89C96.4286 114.189 98.8102 113.075 101.278 112.234C101.804 112.055 102.757 112.065 103.04 112.396C107.911 118.118 112.71 123.904 117.516 129.68C117.584 129.763 117.587 129.903 117.699 130.27C110.274 135.686 101.965 138.745 92.396 139.474Z" fill="#B0A781"/>
<path d="M60.8555 130.259C61.1993 129.705 61.4034 129.274 61.6971 128.922C66.1703 123.566 70.6828 118.243 75.1202 112.859C75.9224 111.885 76.4954 111.839 77.6414 112.353C79.9622 113.388 82.3975 114.168 84.8186 114.958C85.6065 115.217 86.2296 115.318 86.226 116.4C86.1795 123.753 86.1938 131.103 86.1795 138.457C86.1795 138.687 86.0971 138.913 86.004 139.409C76.7318 138.816 68.4695 135.675 60.8555 130.259Z" fill="#8D97B5"/>
</svg>
