<svg width="33" height="32" viewBox="0 0 33 32" fill="none" xmlns="http://www.w3.org/2000/svg">
<path d="M16.1969 10.6644C13.2589 10.6644 10.8614 13.062 10.8614 16C10.8614 18.938 13.2589 21.3356 16.1969 21.3356C19.1348 21.3356 21.5324 18.938 21.5324 16C21.5324 13.062 19.1348 10.6644 16.1969 10.6644ZM32.1994 16C32.1994 13.7905 32.2194 11.601 32.0953 9.39554C31.9712 6.83381 31.3869 4.56027 29.5136 2.68701C27.6364 0.809737 25.3669 0.229345 22.8052 0.105261C20.5958 -0.018823 18.4063 0.00119058 16.2009 0.00119058C13.9914 0.00119058 11.802 -0.018823 9.59654 0.105261C7.03485 0.229345 4.76136 0.813739 2.88813 2.68701C1.01089 4.56427 0.430512 6.83381 0.306431 9.39554C0.182349 11.605 0.202362 13.7945 0.202362 16C0.202362 18.2055 0.182349 20.399 0.306431 22.6045C0.430512 25.1662 1.0149 27.4397 2.88813 29.313C4.76536 31.1903 7.03485 31.7707 9.59654 31.8947C11.806 32.0188 13.9954 31.9988 16.2009 31.9988C18.4103 31.9988 20.5998 32.0188 22.8052 31.8947C25.3669 31.7707 27.6404 31.1863 29.5136 29.313C31.3909 27.4357 31.9712 25.1662 32.0953 22.6045C32.2234 20.399 32.1994 18.2095 32.1994 16ZM16.1969 24.2095C11.6539 24.2095 7.98748 20.5431 7.98748 16C7.98748 11.4569 11.6539 7.79045 16.1969 7.79045C20.7399 7.79045 24.4063 11.4569 24.4063 16C24.4063 20.5431 20.7399 24.2095 16.1969 24.2095ZM24.7425 9.37152C23.6818 9.37152 22.8252 8.51494 22.8252 7.45423C22.8252 6.39351 23.6818 5.53693 24.7425 5.53693C25.8032 5.53693 26.6597 6.39351 26.6597 7.45423C26.6601 7.7061 26.6107 7.95556 26.5144 8.18832C26.4182 8.42108 26.277 8.63256 26.0989 8.81066C25.9208 8.98876 25.7093 9.12998 25.4766 9.22622C25.2438 9.32246 24.9944 9.37184 24.7425 9.37152Z" fill="#2D2D2D"/>
</svg>
