<svg width="33" height="32" viewBox="0 0 33 32" fill="none" xmlns="http://www.w3.org/2000/svg">
<path d="M29.808 7.39981C25.0212 -0.000244619 15.2481 -2.20026 7.66902 2.39977C0.289355 6.99981 -2.10405 16.9999 2.68276 24.3999L3.08166 24.9999L1.48606 31L7.46957 29.4L8.06792 29.8C10.6608 31.2 13.4531 32 16.2454 32C19.2371 32 22.2289 31.2 24.8218 29.6C32.2014 24.7999 34.3954 14.9999 29.808 7.39981ZM25.6196 22.7999C24.8218 23.9999 23.8245 24.7999 22.4283 24.9999C21.6305 24.9999 20.6333 25.3999 16.6443 23.7999C13.2536 22.1999 10.4613 19.5999 8.46682 16.5999C7.27012 15.1999 6.67177 13.3999 6.47232 11.5998C6.47232 9.99983 7.07067 8.59982 8.06792 7.59981C8.46682 7.19981 8.86572 6.99981 9.26462 6.99981H10.2619C10.6608 6.99981 11.0597 6.99981 11.2591 7.79982C11.658 8.79982 12.6553 11.1998 12.6553 11.3998C12.8547 11.5998 12.8547 11.9998 12.6553 12.1999C12.8547 12.5999 12.6553 12.9999 12.4558 13.1999C12.2564 13.3999 12.0569 13.7999 11.8575 13.9999C11.4586 14.1999 11.2591 14.5999 11.4586 14.9999C12.2564 16.1999 13.2536 17.3999 14.2509 18.3999C15.4476 19.3999 16.6443 20.1999 18.0404 20.7999C18.4393 20.9999 18.8382 20.9999 19.0377 20.5999C19.2371 20.1999 20.2344 19.1999 20.6333 18.7999C21.0322 18.3999 21.2316 18.3999 21.6305 18.5999L24.8218 20.1999C25.2207 20.3999 25.6196 20.5999 25.819 20.7999C26.0185 21.3999 26.0185 22.1999 25.6196 22.7999Z" fill="#2D2D2D"/>
</svg>
